<svg xmlns="http://www.w3.org/2000/svg" width="1486.351" height="937.785" viewBox="0 0 1486.351 937.785">
    <defs>
        <style>
        .a,.b,.c,.d,.e{fill:none;}.a{stroke:#f60f0f;stroke-width:11px;}.b{stroke:#f50808;}.b,.c,.d,.e{stroke-width:10px;}.c{stroke:#fb0a0a;}.d{stroke:#f90404;}.e{stroke:#fb0e0e;}</style>
    </defs>
    <g transform="translate(-215.188 -50.748)">
        <path class="a" d="M274.005,444.177s236.51-74.991,398.029,475.9"/>
        <path class="b" d="M219.348,716.538s331.46-497.19,658.045-531.311-467.943,799.4-467.943,799.4,1028.5-823.775,1291.719-843.273"/>
        <path class="c" d="M1096.743,141.358S978.79,236.152,961.7,345.684s161.578-147.6,211.294-137.5S1002.871,522.8,1002.871,522.8"/>
        <path class="d" d="M1169.887,53.6s69.137,250.135,66.806,274.216,13.983-186.436,26.412-172.453,73.8,160.8,93.995,137.5,44.279-148.372,27.189-181.775,32.626,163.132,42.725,125.844,20.974-152.256,23.3-144.488-9.322,148.372,0,114.969,23.3-139.05,38.841-131.282,15.536,138.273,27.965,104.094,18.644-52.047,18.644-52.047"/>
        <path class="e" d="M1369.212,56.7c2.476-.124,4.085-2.724,7.3.867s3.59,8.79-.743,9.78c-.082.019,1.127-.083.743,0-4,.886-6.963.625-8.542-5.447-.042-.161.6,3.929.5,3.466C1367.15,59.736,1366.8,56.82,1369.212,56.7Z"/>
    </g>
</svg>